<?xml version="1.0" standalone="no"?>
<!DOCTYPE svg PUBLIC "-//W3C//DTD SVG 20010904//EN"
 "http://www.w3.org/TR/2001/REC-SVG-20010904/DTD/svg10.dtd">
<svg version="1.0" xmlns="http://www.w3.org/2000/svg"
 width="787.000000pt" height="787.000000pt" viewBox="0 0 787.000000 787.000000"
 preserveAspectRatio="xMidYMid meet">
<metadata>
Created by potrace 1.11, written by Peter Selinger 2001-2013
</metadata>
<g transform="translate(0.000000,787.000000) scale(0.100000,-0.100000)"
fill="#000000" stroke="none">
<path d="M4969 7846 c-2 -2 -35 -6 -72 -10 -370 -35 -741 -162 -1053 -361
-166 -106 -403 -316 -510 -450 -21 -27 -47 -59 -57 -70 -40 -43 -169 -246
-226 -355 -89 -171 -195 -456 -216 -583 -3 -17 -8 -40 -11 -49 -13 -45 -41
-225 -51 -328 -15 -168 -8 -547 12 -676 3 -16 7 -42 10 -59 2 -16 7 -48 10
-70 4 -22 8 -47 10 -55 2 -8 7 -31 10 -50 3 -19 11 -53 17 -75 5 -22 12 -50
14 -62 20 -107 131 -429 199 -578 60 -129 75 -164 75 -169 0 -3 -177 -153
-392 -333 -216 -180 -395 -329 -398 -332 -3 -3 -26 -23 -52 -44 -26 -21 -53
-43 -60 -50 -8 -7 -38 -32 -68 -57 -30 -25 -64 -52 -75 -62 -11 -9 -96 -80
-190 -158 -93 -78 -190 -159 -215 -180 -25 -21 -103 -86 -175 -146 -71 -59
-175 -146 -230 -192 -132 -111 -127 -106 -230 -192 -49 -41 -92 -77 -95 -80
-3 -3 -30 -25 -60 -50 -101 -82 -183 -151 -220 -184 -14 -12 -47 -40 -75 -61
-27 -22 -52 -42 -55 -45 -3 -3 -61 -53 -130 -110 -167 -140 -175 -148 -195
-202 -23 -62 -15 -141 19 -212 53 -109 411 -421 676 -591 41 -26 87 -56 102
-66 15 -11 30 -19 33 -19 3 0 24 -11 46 -26 44 -28 167 -90 300 -152 187 -88
515 -192 714 -226 103 -19 247 -37 327 -43 162 -11 439 -5 538 12 14 2 43 6
65 10 22 3 56 8 75 11 75 12 310 76 400 110 52 19 142 58 200 86 58 28 107 52
110 52 3 1 16 9 30 17 14 9 54 33 89 54 210 125 412 311 628 579 44 54 151
231 204 335 84 166 169 393 195 516 3 18 16 72 19 85 2 7 17 80 21 105 2 11 7
40 10 65 3 25 8 53 10 64 26 135 26 638 0 771 -2 11 -7 45 -11 75 -6 45 -25
145 -50 262 -42 195 -149 501 -242 691 -24 48 -43 92 -43 97 0 5 8 15 18 22
10 7 41 32 68 55 27 23 151 126 275 230 124 103 248 206 274 228 26 22 61 51
78 65 17 14 62 52 102 85 90 76 86 72 610 510 242 201 449 374 460 383 11 10
74 62 140 117 66 55 122 102 125 105 3 3 70 59 150 125 80 66 147 122 150 125
3 3 97 82 210 176 113 94 213 181 223 192 49 54 59 158 25 249 -18 47 -40 76
-118 153 -98 98 -222 211 -262 238 -13 9 -25 19 -28 22 -9 11 -162 125 -225
167 -270 182 -588 337 -887 432 -118 37 -351 93 -443 106 -58 8 -105 15 -145
21 -42 7 -504 16 -511 10z"/>
<path d="M7075 4986 c-87 -22 -145 -60 -347 -228 -108 -89 -278 -230 -378
-313 -100 -82 -187 -155 -194 -160 -6 -6 -114 -96 -241 -200 -126 -105 -249
-210 -272 -234 -49 -50 -91 -132 -109 -210 -14 -59 -11 -186 4 -238 21 -68 77
-156 132 -207 95 -87 205 -129 329 -125 134 4 224 44 351 155 14 12 86 72 160
134 74 61 144 119 155 128 11 10 72 60 135 112 63 51 117 96 120 99 3 3 41 35
85 71 44 35 82 67 85 70 3 3 30 25 60 50 30 25 57 47 60 50 3 3 41 34 85 70
44 35 85 69 91 75 6 6 40 34 76 63 141 114 202 242 193 407 -6 135 -58 243
-159 332 -110 97 -274 135 -421 99z"/>
</g>
</svg>
