<svg xmlns="http://www.w3.org/2000/svg" width="102.531" height="100" viewBox="0 0 102.531 100">
  <defs>
    <style>
      .cls-1 {
        fill-rule: evenodd;
      }
    </style>
  </defs>
  <g id="グループ化_6" data-name="グループ化 6" transform="translate(0)">
    <path id="パス_8" data-name="パス 8" class="cls-1" d="M341.487,58.431a51.271,51.271,0,0,0-16.207,99.912c2.562.474,3.5-1.113,3.5-2.467,0-1.222-.048-5.261-.07-9.545-14.262,3.1-17.272-6.049-17.272-6.049-2.332-5.925-5.692-7.5-5.692-7.5-4.651-3.182.351-3.116.351-3.116,5.148.362,7.859,5.284,7.859,5.284,4.572,7.837,11.993,5.572,14.918,4.262a10.92,10.92,0,0,1,3.255-6.856c-11.387-1.3-23.357-5.692-23.357-25.336a19.839,19.839,0,0,1,5.282-13.76c-.532-1.292-2.287-6.505.5-13.568,0,0,4.3-1.377,14.1,5.256a48.6,48.6,0,0,1,25.674,0c9.785-6.633,14.084-5.256,14.084-5.256,2.79,7.062,1.035,12.276.5,13.568a19.8,19.8,0,0,1,5.276,13.76c0,19.691-11.993,24.026-23.409,25.3,1.839,1.592,3.477,4.711,3.477,9.494,0,6.859-.059,12.38-.059,14.069,0,1.365.923,2.964,3.521,2.46a51.273,51.273,0,0,0-16.236-99.905Z" transform="translate(-290.221 -58.431)"/>
    <path id="パス_9" data-name="パス 9" d="M313.831,145.6c-.194.438-.881.569-1.507.269s-1-.884-.789-1.321c.189-.45.878-.575,1.514-.275s1,.89.782,1.326Zm-1.082-.8" transform="translate(-279.725 -71.963)"/>
    <path id="パス_10" data-name="パス 10" d="M316.263,148.627c-.419.387-1.239.207-1.8-.406a1.345,1.345,0,0,1-.258-1.827c.432-.389,1.227-.207,1.8.406s.687,1.433.249,1.827Zm-.839-.9" transform="translate(-294.02 -72.521)"/>
    <path id="パス_11" data-name="パス 11" d="M318.661,152.282c-.539.376-1.42.025-1.964-.757s-.539-1.721.012-2.1,1.414-.036,1.966.738c.537.8.537,1.734-.013,2.116Zm0,0" transform="translate(-294.414 -73.188)"/>
    <path id="パス_12" data-name="パス 12" d="M322.127,155.61c-.482.531-1.509.387-2.26-.338a1.69,1.69,0,0,1-.5-2.247c.488-.531,1.52-.382,2.277.338s1,1.72.482,2.247Zm0,0" transform="translate(-294.92 -87.762)"/>
    <path id="パス_13" data-name="パス 13" d="M326.834,157.254c-.213.687-1.2,1-2.2.708s-1.645-1.108-1.444-1.8,1.2-1.019,2.2-.706,1.645,1.1,1.439,1.8Zm0,0" transform="translate(-295.628 -86.474)"/>
    <path id="パス_14" data-name="パス 14" d="M331.807,157.415c.025.725-.82,1.326-1.865,1.34s-1.9-.563-1.913-1.277c0-.732.826-1.326,1.877-1.345s1.9.563,1.9,1.283Zm0,0" transform="translate(-296.436 -86.081)"/>
    <path id="パス_15" data-name="パス 15" d="M336.4,156.546c.125.706-.6,1.433-1.64,1.626-1.021.188-1.966-.25-2.1-.951-.127-.725.613-1.452,1.632-1.64,1.04-.181,1.97.245,2.1.964Zm0,0" transform="translate(-297.193 -86.373)"/>
  </g>
</svg>
