<svg xmlns="http://www.w3.org/2000/svg" width="122.982" height="100" viewBox="0 0 122.982 100">
  <defs>
    <style>
      .cls-1 {
        fill: #00acee;
      }
    </style>
  </defs>
  <g id="Twitter_Logo_WhiteOnImage" transform="translate(0)">
    <g id="Logo__x2014__FIXED">
      <g id="グループ化_8" data-name="グループ化 8">
        <path id="パス_16" data-name="パス 16" class="cls-1" d="M113.732,198.4c46.407,0,71.8-38.484,71.8-71.8,0-1.083,0-2.165-.049-3.248a51.411,51.411,0,0,0,12.6-13.091,51.145,51.145,0,0,1-14.518,3.986,25.389,25.389,0,0,0,11.122-13.976,50.2,50.2,0,0,1-16.043,6.1,25.242,25.242,0,0,0-43.652,17.274,27.892,27.892,0,0,0,.64,5.758,71.66,71.66,0,0,1-52.018-26.378,25.337,25.337,0,0,0,7.825,33.711,25.525,25.525,0,0,1-11.417-3.15v.344a25.289,25.289,0,0,0,20.226,24.754,25.382,25.382,0,0,1-11.368.443,25.234,25.234,0,0,0,23.573,17.52A50.614,50.614,0,0,1,81.1,187.475a48.562,48.562,0,0,1-6-.344,71.783,71.783,0,0,0,38.632,11.27" transform="translate(-75.1 -98.4)"/>
      </g>
    </g>
  </g>
</svg>
