<svg xmlns="http://www.w3.org/2000/svg" xmlns:xlink="http://www.w3.org/1999/xlink" width="364.491" height="406.024" viewBox="0 0 364.491 406.024">
  <defs>
    <style>
      .cls-1 {
        fill: url(#linear-gradient);
      }

      .cls-2 {
        fill: url(#linear-gradient-2);
      }

      .cls-3 {
        fill: url(#linear-gradient-3);
      }

      .cls-4 {
        fill: url(#linear-gradient-4);
      }

      .cls-5 {
        opacity: 0.2;
      }

      .cls-6 {
        opacity: 0.12;
      }

      .cls-7 {
        fill: #fff;
        opacity: 0.25;
      }
    </style>
    <linearGradient id="linear-gradient" x1="0.915" y1="1.03" x2="-0.383" y2="0.361" gradientUnits="objectBoundingBox">
      <stop offset="0" stop-color="#00a0ff"/>
      <stop offset="0.007" stop-color="#00a1ff"/>
      <stop offset="0.26" stop-color="#00beff"/>
      <stop offset="0.512" stop-color="#00d2ff"/>
      <stop offset="0.76" stop-color="#00dfff"/>
      <stop offset="1" stop-color="#00e3ff"/>
    </linearGradient>
    <linearGradient id="linear-gradient-2" x1="1.076" y1="0.733" x2="-1.305" y2="0.733" gradientUnits="objectBoundingBox">
      <stop offset="0" stop-color="#ffe000"/>
      <stop offset="0.409" stop-color="#ffbd00"/>
      <stop offset="0.775" stop-color="orange"/>
      <stop offset="1" stop-color="#ff9c00"/>
    </linearGradient>
    <linearGradient id="linear-gradient-3" x1="0.862" y1="-0.023" x2="-0.501" y2="-1.793" gradientUnits="objectBoundingBox">
      <stop offset="0" stop-color="#ff3a44"/>
      <stop offset="1" stop-color="#c31162"/>
    </linearGradient>
    <linearGradient id="linear-gradient-4" x1="-0.188" y1="2.697" x2="0.421" y2="1.907" gradientUnits="objectBoundingBox">
      <stop offset="0" stop-color="#32a071"/>
      <stop offset="0.068" stop-color="#2da771"/>
      <stop offset="0.476" stop-color="#15cf74"/>
      <stop offset="0.801" stop-color="#06e775"/>
      <stop offset="1" stop-color="#00f076"/>
    </linearGradient>
  </defs>
  <g id="グループ化_15" data-name="グループ化 15" transform="translate(-19.973 -17.14)">
    <path id="パス_18" data-name="パス 18" class="cls-1" d="M27.266,18.617c-4.578,4.862-7.293,12.408-7.293,22.179V389.912c0,9.787,2.715,17.317,7.293,22.179l1.168,1.137L224,217.659v-4.609L28.434,17.465Z" transform="translate(0 4.798)"/>
    <path id="パス_19" data-name="パス 19" class="cls-2" d="M98.093,160.77,32.9,95.544V90.935L98.109,25.724l1.468.852,77.239,43.884c22.053,12.534,22.053,33.039,0,45.573L99.577,159.918Z" transform="translate(191.105 126.913)"/>
    <path id="パス_20" data-name="パス 20" class="cls-3" d="M283.851,96.68,217.172,30,20.435,226.738c7.277,7.7,19.29,8.651,32.818.963L283.851,96.68" transform="translate(6.831 190.152)"/>
    <path id="パス_21" data-name="パス 21" class="cls-4" d="M283.851,153.474,53.253,22.453c-13.528-7.688-25.541-6.74-32.818.963L217.172,220.153Z" transform="translate(6.831 0)"/>
    <g id="グループ化_14" data-name="グループ化 14" transform="translate(19.973 285.363)">
      <path id="パス_22" data-name="パス 22" class="cls-5" d="M282.382,34.132,53.253,164.316c-12.818,7.293-24.278,6.8-31.634.174h0l-1.184,1.168h0l1.168,1.152.016-.016c7.356,6.63,18.816,7.119,31.634-.174L283.851,35.6Z" transform="translate(-13.142 -34.132)"/>
      <path id="パス_23" data-name="パス 23" class="cls-6" d="M27.266,63.092c-4.578-4.862-7.293-12.408-7.293-22.179v2.3c0,9.787,2.715,17.317,7.293,22.179l1.184-1.168Z" transform="translate(-19.973 66.13)"/>
    </g>
    <path id="パス_24" data-name="パス 24" class="cls-6" d="M115.736,50.491,37.029,95.212,38.5,96.68,115.736,52.8C126.755,46.529,132.28,38.273,132.28,30h0C131.348,37.483,125.744,44.808,115.736,50.491Z" transform="translate(252.184 190.152)"/>
    <path id="パス_25" data-name="パス 25" class="cls-7" d="M60.084,24.757,367.921,199.662c10.008,5.683,15.612,13.007,16.543,20.49h0c.016-8.256-5.509-16.528-16.543-22.795L60.084,22.452C38.016,9.918,19.973,20.337,19.973,45.594v2.32C19.973,22.642,38.016,12.223,60.084,24.757Z" transform="translate(0 0.001)"/>
  </g>
</svg>
