<svg xmlns="http://www.w3.org/2000/svg" width="175.858" height="171.517" viewBox="0 0 175.858 171.517">
  <defs>
    <style>
      .cls-1, .cls-2 {
        fill: #fff;
      }

      .cls-1 {
        fill-rule: evenodd;
      }
    </style>
  </defs>
  <g id="グループ化_6" data-name="グループ化 6" transform="translate(-290.221 -58.431)">
    <path id="パス_8" data-name="パス 8" class="cls-1" d="M378.151,58.431a87.939,87.939,0,0,0-27.8,171.366c4.394.813,6.008-1.909,6.008-4.231,0-2.1-.082-9.023-.119-16.371-24.462,5.321-29.624-10.375-29.624-10.375-4-10.162-9.763-12.866-9.763-12.866-7.978-5.457.6-5.345.6-5.345,8.83.62,13.479,9.063,13.479,9.063,7.842,13.441,20.57,9.556,25.588,7.31.789-5.683,3.068-9.564,5.583-11.759-19.53-2.222-40.061-9.763-40.061-43.455a34.028,34.028,0,0,1,9.06-23.6c-.913-2.216-3.923-11.158.852-23.271,0,0,7.384-2.362,24.187,9.015a83.365,83.365,0,0,1,44.036,0c16.783-11.376,24.156-9.015,24.156-9.015,4.786,12.113,1.775,21.055.862,23.271a33.962,33.962,0,0,1,9.05,23.6c0,33.774-20.57,41.208-40.15,43.385,3.154,2.73,5.964,8.08,5.964,16.283,0,11.765-.1,21.234-.1,24.13,0,2.341,1.583,5.083,6.04,4.22A87.942,87.942,0,0,0,378.151,58.431Z" transform="translate(0 0)"/>
    <path id="パス_9" data-name="パス 9" class="cls-2" d="M313.831,145.6c-.194.438-.881.569-1.507.269s-1-.884-.789-1.321c.189-.45.878-.575,1.514-.275s1,.89.782,1.326Zm-1.082-.8" transform="translate(9.694 39.077)"/>
    <path id="パス_10" data-name="パス 10" class="cls-2" d="M316.263,148.627c-.419.387-1.239.207-1.8-.406a1.345,1.345,0,0,1-.258-1.827c.432-.389,1.227-.207,1.8.406s.687,1.433.249,1.827Zm-.839-.9" transform="translate(10.823 40.024)"/>
    <path id="パス_11" data-name="パス 11" class="cls-2" d="M318.661,152.282c-.539.376-1.42.025-1.964-.757s-.539-1.721.012-2.1,1.414-.036,1.966.738c.537.8.537,1.734-.013,2.116Zm0,0" transform="translate(11.892 41.432)"/>
    <path id="パス_12" data-name="パス 12" class="cls-2" d="M322.127,155.61c-.482.531-1.509.387-2.26-.338a1.69,1.69,0,0,1-.5-2.247c.488-.531,1.52-.382,2.277.338s1,1.72.482,2.247Zm0,0" transform="translate(13.176 42.998)"/>
    <path id="パス_13" data-name="パス 13" class="cls-2" d="M326.834,157.254c-.213.687-1.2,1-2.2.708s-1.645-1.108-1.444-1.8,1.2-1.019,2.2-.706,1.645,1.1,1.439,1.8Zm0,0" transform="translate(15.021 44.195)"/>
    <path id="パス_14" data-name="パス 14" class="cls-2" d="M331.807,157.415c.025.725-.82,1.326-1.865,1.34s-1.9-.563-1.913-1.277c0-.732.826-1.326,1.877-1.345s1.9.563,1.9,1.283Zm0,0" transform="translate(17.243 44.559)"/>
    <path id="パス_15" data-name="パス 15" class="cls-2" d="M336.4,156.546c.125.706-.6,1.433-1.64,1.626-1.021.188-1.966-.25-2.1-.951-.127-.725.613-1.452,1.632-1.64,1.04-.181,1.97.245,2.1.964Zm0,0" transform="translate(19.35 44.29)"/>
  </g>
</svg>
